<svg version="1.2" xmlns="http://www.w3.org/2000/svg" viewBox="0 0 100 32" width="100" height="32">
	<title>account-svg</title>
	<style>
		.s0 { fill: #ffffff } 
		.s1 { fill: #313131 } 
	</style>
	<path id="Layer" fill-rule="evenodd" class="s0" d="m8.8 20.5h-1.5l3.4-9.5h1.7l3.4 9.5h-1.5l-0.9-2.5h0.6v-1.2h-1l-1.4-4h-0.1l-1.4 4h-1v1.2h0.6zm0.9-2.5l0.4-1.2h2.8l0.5 1.2zm7.3 2.5v-7.1h1.4v3h0.6l2.4-3h1.7l-2.8 3.5 2.8 3.6h-1.7l-2.1-2.8h-0.9v2.8zm7.2 0v-7.1h1.3v3h0.7l2.4-3h1.7l-2.8 3.5 2.8 3.6h-1.7l-2.2-2.8h-0.9v2.8zm9.3 0.2q-0.7 0-1.2-0.3-0.6-0.2-0.9-0.7-0.3-0.5-0.3-1.2 0-0.6 0.2-1 0.3-0.4 0.7-0.6 0.4-0.2 0.8-0.3 0.5-0.2 1-0.2 0.7-0.1 1.1-0.1 0.4-0.1 0.5-0.2 0.2-0.1 0.2-0.4 0-0.6-0.3-0.9-0.4-0.4-1-0.4-0.7 0-1.1 0.3-0.4 0.3-0.6 0.7l-1.3-0.3q0.3-0.6 0.7-1 0.5-0.4 1-0.6 0.6-0.2 1.3-0.2 0.4 0 0.9 0.1 0.4 0.1 0.9 0.4 0.4 0.2 0.6 0.7 0.3 0.5 0.3 1.3v4.7h-1.3v-1h-0.1q-0.1 0.3-0.4 0.6-0.3 0.2-0.7 0.4-0.4 0.2-1 0.2zm0.3-1.2q0.6 0 1-0.2 0.4-0.2 0.6-0.6 0.2-0.3 0.2-0.8v-0.9q0 0.1-0.3 0.2-0.2 0-0.4 0.1-0.3 0-0.6 0-0.2 0.1-0.4 0.1-0.4 0.1-0.7 0.2-0.3 0.1-0.5 0.3-0.2 0.2-0.2 0.6 0 0.5 0.3 0.8 0.4 0.2 1 0.2zm5.7 3.7q-0.3 0-0.6-0.1-0.2 0-0.4-0.1l0.4-1.1q0.3 0.1 0.6 0.1 0.3-0.1 0.6-0.3 0.2-0.2 0.4-0.6l0.1-0.5-2.6-7.2h1.5l1.8 5.5h0.1l1.8-5.5h1.5l-3 8q-0.2 0.6-0.5 1-0.3 0.4-0.7 0.6-0.5 0.2-1 0.2zm7.8-5.6v2.9h-1.3v-7.1h1.3v3h3.1v-3h1.3v7.1h-1.3v-2.9zm5.4-3v-1.2h5.9v1.2h-2.3v5.9h-1.3v-5.9z"/>
	<path id="Layer" class="s1" d="m67 16c0-7.2 5.8-13 13-13 7.2 0 13 5.8 13 13 0 7.2-5.8 13-13 13-7.2 0-13-5.8-13-13z"/>
	<path id="Layer" fill-rule="evenodd" class="s0" d="m81.4 18c1.4-0.6 2.3-1.9 2.3-3.5 0-2.1-1.6-3.8-3.7-3.8-2.1 0-3.8 1.7-3.8 3.8 0 1.6 1 2.9 2.4 3.5-1.4 0.2-2.7 0.8-3.8 1.6l1.4 1.8c1.1-0.8 2.4-1.3 3.8-1.3 1.4 0 2.7 0.5 3.8 1.3l1.4-1.8c-1.1-0.8-2.4-1.4-3.8-1.6z"/>
</svg>